<?xml version="1.0" standalone="no"?><!DOCTYPE svg PUBLIC "-//W3C//DTD SVG 1.1//EN" "http://www.w3.org/Graphics/SVG/1.1/DTD/svg11.dtd"><svg t="1513260101219" class="icon" style="" viewBox="0 0 1028 1024" version="1.1" xmlns="http://www.w3.org/2000/svg" p-id="2901" xmlns:xlink="http://www.w3.org/1999/xlink" width="200.78125" height="200"><defs><style type="text/css"></style></defs><path d="M888.069936 858.261269C888.32491 856.20874 888.914598 852.094677 889.885241 846.21821 891.526956 836.278925 893.64231 825.167356 896.275784 813.1847 903.790514 778.991659 913.909985 744.828819 926.92488 713.152495 929.368089 707.206091 931.895969 701.396115 934.509141 695.733175 942.165136 679.142061 953.450406 661.170575 968.046999 641.505564 974.458728 632.867471 1017.424626 580.788316 1020.344142 572.029764 1055.52539 466.486027 958.563564 369.524201 830.766591 420.642989 826.82772 422.218539 823.371255 424.80013 820.742542 428.129835L638.92436 658.432866 657.95182 649.212122 367.04273 649.212122C353.654009 649.212122 342.800304 660.065824 342.800304 673.454545 342.800304 686.843266 353.654009 697.696971 367.04273 697.696971L657.95182 697.696971C665.371135 697.696971 672.381947 694.299516 676.979282 688.476226L858.797463 458.173195 848.773414 465.660041C937.426657 430.198743 996.741887 489.513975 974.347376 556.697508 974.866139 555.14122 969.739613 561.855821 962.139777 571.067616 945.255206 591.533481 938.832814 599.51565 929.114997 612.607814 912.696166 634.727808 899.74491 655.352326 890.485409 675.418359 887.579581 681.715511 884.777966 688.154628 882.077913 694.726159 867.889685 729.258197 856.99655 766.03289 848.921077 802.77738 846.097979 815.622859 843.824317 827.565986 842.048554 838.316815 840.96871 844.854417 840.287423 849.607546 839.954918 852.284186 838.304392 865.570782 847.73729 877.67971 861.023886 879.330236 874.31048 880.980762 886.41941 871.547863 888.069936 858.261269L888.069936 858.261269Z" p-id="2902"></path><path d="M187.673502 852.284186C187.340997 849.607546 186.659709 844.854417 185.579865 838.316815 183.804103 827.565986 181.530441 815.622859 178.707342 802.77738 170.631869 766.03289 159.738735 729.258197 145.550507 694.726159 142.850454 688.154628 140.048839 681.715511 137.143009 675.418359 127.883509 655.352326 114.932254 634.727808 98.513423 612.607814 88.795605 599.51565 82.373214 591.533481 65.488642 571.067616 57.888805 561.855821 52.76228 555.14122 53.281043 556.697508 30.886531 489.513975 90.201763 430.198743 178.855007 465.660041L168.830956 458.173195 275.147743 592.841124C283.443989 603.3497 298.688306 605.143151 309.196885 596.846906 319.705461 588.55066 321.498909 573.306342 313.202666 562.797764L206.885879 428.129835C204.257164 424.80013 200.800701 422.218539 196.861828 420.642989 69.064856 369.524201-27.89697 466.486027 7.284277 572.029764 10.203794 580.788316 53.169693 632.867471 59.581422 641.505564 74.178015 661.170575 85.463284 679.142061 93.11928 695.733175 95.732451 701.396115 98.260331 707.206091 100.703538 713.152495 113.718434 744.828819 123.837904 778.991659 131.352636 813.1847 133.986109 825.167356 136.101464 836.278925 137.743179 846.21821 138.713821 852.094677 139.303509 856.20874 139.558484 858.261269 141.209009 871.547863 153.317939 880.980762 166.604534 879.330236 179.89113 877.67971 189.324028 865.570782 187.673502 852.284186L187.673502 852.284186Z" p-id="2903"></path><path d="M197.345759 964.363637 197.345759 867.393939 173.103336 891.636363 864.118745 891.636363 839.876321 867.393939 839.876321 964.363695C839.876321 977.752416 850.730024 988.606118 864.118745 988.606118 877.507466 988.606118 888.361168 977.752416 888.361168 964.363695L888.361168 867.393939C888.361168 854.005218 877.507466 843.151516 864.118745 843.151516L173.103336 843.151516C159.714614 843.151516 148.860911 854.005218 148.860911 867.393939L148.860911 964.363637C148.860911 977.752358 159.714614 988.606061 173.103336 988.606061 186.492057 988.606061 197.345759 977.752358 197.345759 964.363637L197.345759 964.363637Z" p-id="2904"></path><path d="M173.103336 418.90909 173.103336 249.269563C173.103336 209.075596 205.692857 176.484848 245.876149 176.484848L754.875978 176.484848C795.067558 176.484848 827.648791 209.069516 827.648791 249.269563L827.648791 418.90909 876.133638 418.90909 876.133638 249.269563C876.133638 182.293217 821.846143 128 754.875978 128L245.876149 128C178.915006 128 124.618487 182.298562 124.618487 249.269563L124.618487 418.90909 173.103336 418.90909 173.103336 418.90909Z" p-id="2905"></path></svg>